<svg xmlns="http://www.w3.org/2000/svg" fill="none" viewBox="0 0 41 41">
  <defs/>
  <path fill="#000" fill-rule="evenodd" d="M27.413 3.218L24.651.582l.628 4.149c-1.436-1.135-3.33-2.36-5.455-3.043L16.495.618l2.036 3.354c-1.535-.322-3.581-.559-6.225-.497l-4.117.095 3.638 2.437a21.507 21.507 0 00-5.843 1.954L2.578 9.686l4.083.783c-1.655 1.075-3.559 2.585-4.654 4.388L.377 17.54l3.429-.83c-1 1.606-2.047 3.706-2.403 5.886l-.56 3.444 2.904-2.416c-.122.886-.21 1.863-.21 2.873 0 1.21.123 2.461.458 3.631l.93 3.255L6.54 30.1c.499 1.723 1.344 3.726 2.791 5.466l2.134 2.565.198-3.848c1.048 1.184 2.51 2.608 4.57 4.17l3.249 2.46-1.38-4.413c1.546.778 3.636 1.578 6.256 2.014l3.91.652-3.08-3.178c1.66.04 3.744-.12 6.055-.772l3.433-.97-3.517-1.595a19.406 19.406 0 005.251-3.326l2.68-2.394-3.778.123c1.178-1.27 2.478-3.003 3.376-5.167l1.407-3.392-3.395 1.832c.493-1.546.928-3.53 1.008-5.859l.134-3.923-2.564 3.197c-.125-1.904-.524-4.184-1.592-6.064l-1.549-2.73-.888 3.192a20.976 20.976 0 00-3.836-4.92zM12.598 20.45c0-4.145 3.372-7.517 7.516-7.517 4.145 0 7.517 3.372 7.517 7.517 0 4.145-3.372 7.517-7.517 7.517-4.144 0-7.516-3.372-7.516-7.517z" clip-rule="evenodd"/>
</svg>
