<?xml version="1.0" standalone="no"?>
<!DOCTYPE svg PUBLIC "-//W3C//DTD SVG 20010904//EN"
 "http://www.w3.org/TR/2001/REC-SVG-20010904/DTD/svg10.dtd">
<svg version="1.0" xmlns="http://www.w3.org/2000/svg"
 width="700.000000pt" height="700.000000pt" viewBox="0 0 700.000000 700.000000"
 preserveAspectRatio="xMidYMid meet">
<metadata>
Created by potrace 1.11, written by Peter Selinger 2001-2013
</metadata>
<g transform="translate(0.000000,700.000000) scale(0.100000,-0.100000)"
fill="#000000" stroke="none">
<path d="M2933 6528 c3 -7 70 -119 150 -248 80 -129 141 -236 137 -238 -5 -2
-64 6 -132 17 -254 42 -340 46 -886 44 -288 -1 -528 -5 -534 -9 -6 -4 113 -88
263 -187 l274 -181 -45 -9 c-197 -37 -438 -108 -629 -186 -168 -69 -743 -354
-728 -362 6 -4 140 -30 297 -59 157 -29 288 -56 293 -60 4 -3 -37 -36 -90 -73
-203 -137 -415 -328 -525 -472 -45 -60 -331 -516 -326 -520 2 -1 111 24 243
56 132 32 247 58 257 59 12 0 4 -20 -34 -82 -112 -187 -226 -445 -274 -623
-23 -84 -128 -684 -122 -691 2 -1 99 76 217 172 117 97 215 173 218 171 2 -3
0 -45 -6 -94 -30 -247 -23 -539 19 -741 15 -73 166 -611 174 -619 1 -2 56 105
121 237 66 132 122 240 125 240 3 0 22 -49 42 -109 68 -200 168 -400 280 -563
48 -69 429 -530 434 -525 1 1 7 92 13 202 6 110 14 238 17 284 l6 83 151 -150
c152 -150 246 -235 387 -348 71 -58 621 -472 647 -487 9 -6 10 -1 3 20 -5 15
-50 158 -101 318 -50 159 -94 296 -97 304 -4 10 -1 12 9 8 8 -3 64 -28 125
-56 147 -67 344 -133 535 -181 146 -37 869 -163 879 -154 2 3 -101 110 -229
238 l-233 233 174 6 c314 11 503 45 963 172 170 47 311 87 312 89 2 1 -116 56
-262 121 l-265 118 142 71 c184 91 330 180 473 286 106 79 596 501 590 508 -2
2 -128 -1 -281 -7 -153 -6 -280 -8 -282 -6 -3 2 27 39 65 82 136 152 261 332
356 513 55 103 302 678 295 685 -3 4 -269 -134 -447 -231 -61 -34 -63 -34 -57
-12 68 231 117 485 135 693 12 135 35 745 28 751 -2 2 -90 -102 -195 -231
-158 -195 -192 -232 -196 -213 -2 13 -11 87 -20 165 -27 232 -93 467 -178 638
-47 94 -279 497 -283 493 -2 -2 -31 -102 -65 -223 -34 -121 -65 -225 -69 -232
-3 -7 -30 27 -63 82 -71 115 -186 270 -288 390 -129 150 -660 659 -660 633 0
-8 20 -146 45 -306 25 -160 45 -294 45 -297 0 -3 -26 14 -58 38 -114 88 -309
209 -452 280 -159 80 -242 111 -580 217 -124 39 -231 73 -239 76 -8 2 -11 -1
-8 -8z m775 -1874 c222 -45 408 -143 570 -298 232 -222 352 -501 352 -816 0
-553 -396 -1015 -960 -1121 -95 -18 -318 -15 -415 6 -276 59 -517 204 -680
410 -450 568 -273 1383 373 1713 136 70 243 101 427 126 56 8 257 -4 333 -20z"/>
</g>
</svg>
